<svg xmlns="http://www.w3.org/2000/svg" width="512" height="512" viewBox="0 0 512 512">
  <path d="M 0.506 139.234 C 0.209 140.480, 0.086 193.925, 0.233 258 L 0.500 374.500 2.808 374.500 C 4.467 374.500, 12.397 367.469, 31.004 349.500 L 56.891 324.500 56.695 231 L 56.500 137.500 28.773 137.234 L 1.046 136.968 0.506 139.234 M 141.473 161.260 C 112.980 190.093, 80.495 223.320, 69.736 234.635 C 62.284 242.472, 62 242.947, 62 247.589 C 62 251.813, 63.012 254.140, 70.198 266.454 C 101.205 319.578, 130.982 367.385, 134.106 369.057 C 135.204 369.645, 150.362 369.922, 172.707 369.762 L 209.500 369.500 209.786 359.803 L 210.071 350.106 202.307 341.303 C 171.074 305.892, 160.139 294.346, 140.712 276.266 L 122.924 259.712 183.152 200.072 C 229.424 154.253, 243.228 140.035, 242.721 138.717 C 242.115 137.136, 239.032 137, 203.754 137 L 165.446 137 141.473 161.260 M 260.145 187.942 L 210 238.885 210 270.803 C 210 288.358, 210.273 304.696, 210.606 307.110 C 211.179 311.259, 212.785 313.106, 239.856 340.753 L 268.500 370.006 304.168 370.003 C 323.786 370.001, 340.548 369.727, 341.418 369.393 C 342.288 369.059, 343 368.298, 343 367.702 C 343 367.106, 328.701 352.192, 311.224 334.559 C 293.748 316.927, 272.945 295.853, 264.997 287.728 L 250.546 272.957 291.773 231.730 L 333 190.503 333.038 269.002 L 333.075 347.500 343.193 358.750 L 353.312 370 391.687 370 C 424.597 370, 430.143 369.790, 430.629 368.524 C 430.997 367.566, 425.809 361.187, 415.848 350.348 C 385.149 316.945, 384.077 315.664, 385.765 314.430 C 387.126 313.434, 387.287 303.437, 387.180 226.107 C 387.114 178.147, 386.795 138.477, 386.471 137.953 C 386.114 137.376, 370.966 137, 348.086 137 L 310.289 137 260.145 187.942 M 396.326 317.592 C 395.715 319.185, 396.535 320.073, 432.485 356.750 L 445.472 370 478.236 370 C 509.008 370, 511 369.892, 511 368.216 C 511 366.535, 506.448 361.428, 476.266 329.250 L 463.838 316 430.388 316 C 400.715 316, 396.868 316.180, 396.326 317.592" stroke="none" fill="#c8000a" fill-rule="evenodd"/>
  <path d="M 1.467 138.234 C 1.202 138.930, 1.101 192.338, 1.243 256.917 C 1.443 348.365, 1.770 374.424, 2.723 374.741 C 3.395 374.965, 15.882 363.564, 30.471 349.406 L 56.997 323.664 56.748 230.582 L 56.500 137.500 29.225 137.234 C 7.944 137.026, 1.844 137.246, 1.467 138.234 M 169.416 137.725 L 164.331 138.093 136.416 166.757 C 121.062 182.522, 98.472 205.688, 86.215 218.237 C 73.959 230.786, 63.496 242.195, 62.965 243.592 C 60.692 249.572, 60.941 250.162, 76.850 276.500 C 81.501 284.200, 86.169 292.231, 87.223 294.346 C 92.086 304.105, 130.735 365.705, 133.365 367.888 C 134.347 368.703, 145.322 368.950, 172.117 368.762 L 209.500 368.500 209.790 359.647 L 210.081 350.794 205.790 346.059 C 198.431 337.937, 188.603 326.802, 182.060 319.174 C 174.300 310.128, 143.657 279.183, 131.500 268.115 L 122.500 259.922 182.348 200.590 C 226.178 157.138, 242.099 140.755, 241.835 139.379 C 241.490 137.587, 239.927 137.497, 207.987 137.428 C 189.569 137.389, 172.212 137.523, 169.416 137.725 M 261.097 187.701 L 211 238.425 211 272.143 L 211 305.860 214.178 304.949 L 217.356 304.038 214.056 307.442 L 210.757 310.846 239.544 339.923 L 268.331 369 305.165 369 C 331.711 369, 342 368.687, 342 367.879 C 342 367.262, 321.483 345.901, 296.406 320.410 C 271.330 294.919, 250.974 273.578, 251.172 272.984 C 251.711 271.366, 332.028 190, 333.086 190 C 333.630 190, 334 221.912, 334 268.925 L 334 347.851 343.549 358.425 L 353.097 369 392.049 369 C 413.472 369, 431 368.745, 431 368.433 C 431 368.122, 423.012 359.076, 413.250 348.331 C 403.488 337.587, 391.900 324.827, 387.500 319.976 C 383.100 315.125, 373.942 305.158, 367.149 297.828 L 354.797 284.500 369.322 299.387 C 379.600 309.921, 384.309 314.096, 385.429 313.666 C 386.858 313.117, 386.986 304.565, 386.755 225.279 L 386.500 137.500 348.847 137.238 L 311.194 136.976 261.097 187.701 M 11 172.500 C 12.292 173.875, 13.574 175, 13.849 175 C 14.124 175, 13.292 173.875, 12 172.500 C 10.708 171.125, 9.426 170, 9.151 170 C 8.876 170, 9.708 171.125, 11 172.500 M 18.898 179.283 C 20.566 181.405, 30 189.401, 30 188.692 C 30 188.420, 27.188 185.792, 23.750 182.851 C 20.313 179.910, 18.129 178.304, 18.898 179.283 M 34 192.313 C 34 192.485, 35.462 193.948, 37.250 195.563 L 40.500 198.500 37.563 195.250 C 34.825 192.221, 34 191.540, 34 192.313 M 41 198.378 C 41 198.585, 41.788 199.373, 42.750 200.128 C 44.336 201.371, 44.371 201.336, 43.128 199.750 C 41.821 198.084, 41 197.555, 41 198.378 M 396.980 317.013 C 395.411 317.982, 396.851 319.584, 427.765 351.250 L 445.093 369 478.047 369 C 500.627 369, 511 368.666, 511 367.938 C 511 367.354, 502.337 357.589, 491.750 346.239 C 481.163 334.888, 470.618 323.553, 468.318 321.050 L 464.135 316.500 431.269 316.317 C 413.192 316.216, 397.762 316.529, 396.980 317.013" stroke="none" fill="#990008" fill-rule="evenodd"/>
</svg>